<svg width="36" height="36" viewBox="0 0 36 36" fill="none" xmlns="http://www.w3.org/2000/svg">
<path d="M18 21V24C15.6131 24 13.3239 24.9482 11.636 26.636C9.94821 28.3239 9 30.6131 9 33H6C6 29.8174 7.26428 26.7652 9.51472 24.5147C11.7652 22.2643 14.8174 21 18 21ZM18 19.5C13.0275 19.5 9 15.4725 9 10.5C9 5.5275 13.0275 1.5 18 1.5C22.9725 1.5 27 5.5275 27 10.5C27 15.4725 22.9725 19.5 18 19.5ZM18 16.5C21.315 16.5 24 13.815 24 10.5C24 7.185 21.315 4.5 18 4.5C14.685 4.5 12 7.185 12 10.5C12 13.815 14.685 16.5 18 16.5ZM31.5 25.5H33V33H21V25.5H22.5V24C22.5 22.8065 22.9741 21.6619 23.818 20.818C24.6619 19.9741 25.8065 19.5 27 19.5C28.1935 19.5 29.3381 19.9741 30.182 20.818C31.0259 21.6619 31.5 22.8065 31.5 24V25.5ZM28.5 25.5V24C28.5 23.6022 28.342 23.2206 28.0607 22.9393C27.7794 22.658 27.3978 22.5 27 22.5C26.6022 22.5 26.2206 22.658 25.9393 22.9393C25.658 23.2206 25.5 23.6022 25.5 24V25.5H28.5Z" fill="black"/>
</svg>
