<svg width="36" height="36" viewBox="0 0 36 36" fill="none" xmlns="http://www.w3.org/2000/svg">
<g clip-path="url(#clip0_363_461)">
<path d="M29.3383 13.5097C28.0549 12.9597 26.7104 12.6541 25.3658 12.7763C26.2214 11.3095 26.5881 9.72051 26.527 8.00931C26.2826 3.67012 22.6768 0.125463 18.3988 0.00327533C16.0153 -0.0578539 13.8151 0.736686 12.1039 2.38675C10.3927 4.03682 9.47599 6.23698 9.47599 8.55933C9.47599 10.0261 9.90383 11.554 10.6372 12.8374C9.29267 12.7151 7.94811 12.9597 6.66468 13.5708C3.60892 14.9764 1.59215 17.9711 1.53102 21.2102C1.46989 23.5326 2.32549 25.6716 3.97562 27.3217C5.62576 28.9718 7.76472 29.8885 10.0871 29.8885C11.8595 29.8885 13.5707 29.3385 14.9764 28.3606V29.3996C14.9764 30.3775 14.6708 31.4164 14.1819 32.272L13.0818 34.1666C12.8374 34.5333 12.8985 35.0222 13.0818 35.3889C13.2652 35.7556 13.693 36 14.1208 36H21.8213C22.2491 36 22.6158 35.7556 22.8603 35.3889C23.1047 35.0222 23.1047 34.5333 22.8603 34.1666L21.8213 32.2109C21.2713 31.3553 21.0268 30.3775 21.0268 29.3386V28.2996C22.4324 29.2774 24.1437 29.8275 25.916 29.8275C28.2384 29.8275 30.3774 28.9107 32.0275 27.2607C33.6166 25.6105 34.4722 23.4716 34.4722 21.1491C34.4108 17.9711 32.394 14.9153 29.3383 13.5097ZM31.1106 26.466C29.7661 27.8716 27.8715 28.6661 25.9158 28.6661C24.0212 28.6661 22.2489 27.9327 20.8433 26.5882L19.8043 25.6104V29.3995C19.8043 30.6218 20.1099 31.8441 20.721 32.883L21.8211 34.7776H14.1207L15.2207 32.883C15.8319 31.844 16.1375 30.6218 16.1375 29.3995V25.6104L15.0985 26.5882C13.7539 27.9328 11.9205 28.6661 10.0259 28.6661C8.07023 28.6661 6.17571 27.8717 4.83115 26.466C3.42553 25.0604 2.69212 23.1658 2.69212 21.2101C2.69212 18.3988 4.46445 15.832 7.09237 14.6097C8.62025 13.9374 10.087 13.8153 11.7371 14.1819L13.5706 14.6097L12.3483 13.2041C11.2482 11.9207 10.6371 10.2095 10.6371 8.49827C10.6371 6.4815 11.4316 4.58692 12.8984 3.18129C14.3651 1.83673 16.2597 1.10339 18.2765 1.16452C22.0045 1.28678 25.1213 4.34247 25.3047 8.07051C25.427 9.96509 24.8158 11.7986 23.5935 13.2042L22.3712 14.6098L24.2047 14.182C25.8548 13.7541 27.3216 13.9375 28.8495 14.6098C31.4774 15.8932 33.1887 18.46 33.2497 21.2102C33.2496 23.1658 32.5163 25.0604 31.1106 26.466Z" fill="black"/>
<path d="M31.4161 20.6602C31.0494 20.6602 30.805 20.9046 30.805 21.2713C30.805 22.5547 30.3161 23.777 29.3994 24.7548C28.4826 25.7327 27.2603 26.2216 25.9158 26.2216C25.5491 26.2216 25.3047 26.466 25.3047 26.8327C25.3047 27.1994 25.5491 27.4439 25.9158 27.4439C27.566 27.4439 29.0938 26.7716 30.255 25.6716C31.4162 24.4493 32.0274 22.9214 32.0274 21.2713C32.0273 20.9046 31.7217 20.6602 31.4161 20.6602Z" fill="black"/>
</g>
<defs>
<clipPath id="clip0_363_461">
<rect width="36" height="36" fill="white"/>
</clipPath>
</defs>
</svg>
