<svg width="44" height="44" viewBox="0 0 44 44" fill="none" xmlns="http://www.w3.org/2000/svg">
<path d="M34.375 17.875H39.875C40.6043 17.875 41.3038 18.1647 41.8195 18.6805C42.3353 19.1962 42.625 19.8957 42.625 20.625V39.875C42.625 40.6043 42.3353 41.3038 41.8195 41.8195C41.3038 42.3353 40.6043 42.625 39.875 42.625H4.125C3.39565 42.625 2.69618 42.3353 2.18046 41.8195C1.66473 41.3038 1.375 40.6043 1.375 39.875V20.625C1.375 19.8957 1.66473 19.1962 2.18046 18.6805C2.69618 18.1647 3.39565 17.875 4.125 17.875H9.625" stroke="black" stroke-width="2.75" stroke-linecap="round" stroke-linejoin="round"/>
<path d="M42.625 22L24.5667 32.318C23.7849 32.7643 22.9002 32.999 22 32.999C21.0998 32.999 20.2151 32.7643 19.4333 32.318L1.375 22" stroke="black" stroke-width="2.75" stroke-linecap="round" stroke-linejoin="round"/>
<path d="M22 1.375V23.375" stroke="black" stroke-width="2.75" stroke-linecap="round" stroke-linejoin="round"/>
<path d="M15.125 17.875L22 23.375L28.875 17.875" stroke="black" stroke-width="2.75" stroke-linecap="round" stroke-linejoin="round"/>
</svg>
