<?xml version="1.0" standalone="no"?>
<!DOCTYPE svg PUBLIC "-//W3C//DTD SVG 20010904//EN">
<svg version="1.0" xmlns="http://www.w3.org/2000/svg"
 width="54.000000pt" height="56.000000pt" viewBox="0 0 54.000000 56.000000"
 preserveAspectRatio="xMidYMid meet">

<g transform="translate(0.000000,56.000000) scale(0.100000,-0.100000)"
fill="#000000" stroke="none">
<path d="M269 507 c-42 -16 -58 -62 -47 -132 11 -73 0 -98 -50 -113 -32 -10
-39 -9 -59 10 l-23 21 0 -23 c0 -16 20 -41 61 -79 34 -31 68 -60 76 -65 22
-12 37 8 18 24 -21 17 -20 96 1 108 8 5 17 17 18 28 2 11 12 20 27 22 13 2 48
27 76 55 l53 51 -23 24 c-44 47 -52 46 -96 -9 -26 -33 -41 -62 -41 -80 0 -42
-17 -44 -23 -2 -6 32 -2 41 43 92 36 41 46 59 38 68 -12 15 -13 15 -49 0z"/>
<path d="M180 472 c-32 -16 -35 -21 -38 -67 -3 -59 4 -71 41 -80 l27 -7 -6 59
c-5 48 -3 65 11 86 20 32 13 33 -35 9z"/>
<path d="M121 434 c0 -11 3 -14 6 -6 3 7 2 16 -1 19 -3 4 -6 -2 -5 -13z"/>
<path d="M106 365 c-7 -44 -6 -51 14 -67 24 -19 34 -21 65 -9 16 7 15 9 -12
14 -31 6 -48 33 -55 87 -3 17 -6 9 -12 -25z"/>
<path d="M384 345 c-26 -30 -54 -56 -63 -58 -9 -3 4 -5 29 -6 59 -1 100 33
100 84 0 19 -4 35 -9 35 -6 0 -31 -25 -57 -55z"/>
<path d="M406 275 c-11 -8 -37 -15 -57 -15 -21 0 -44 -3 -52 -6 -20 -7 -10
-42 15 -55 21 -11 108 -4 108 9 0 4 4 24 9 45 10 40 6 44 -23 22z"/>
<path d="M250 202 c0 -16 8 -36 18 -46 17 -14 23 -15 58 -2 33 12 35 15 14 15
-31 1 -70 27 -70 47 0 8 -4 14 -10 14 -5 0 -10 -13 -10 -28z"/>
</g>
</svg>
